<?xml version="1.0" standalone="no"?>
<!DOCTYPE svg PUBLIC "-//W3C//DTD SVG 20010904//EN"
 "http://www.w3.org/TR/2001/REC-SVG-20010904/DTD/svg10.dtd">
<svg version="1.0" xmlns="http://www.w3.org/2000/svg"
 width="698.000000pt" height="698.000000pt" viewBox="0 0 698.000000 698.000000"
 preserveAspectRatio="xMidYMid meet">
<metadata>
Created by potrace 1.14, written by Peter Selinger 2001-2017
</metadata>
<g transform="translate(0.000000,698.000000) scale(0.100000,-0.100000)"
fill="#000000" stroke="none">
<path d="M1050 3590 l0 -2581 645 645 645 645 0 1027 0 1027 28 -30 c15 -16
48 -58 73 -94 42 -59 633 -872 701 -964 53 -72 213 -293 228 -315 8 -12 22
-30 30 -40 8 -10 40 -53 70 -96 93 -129 81 -122 116 -72 46 65 858 1195 960
1337 49 68 109 153 135 189 86 124 79 206 79 -966 l0 -1037 635 -635 635 -635
0 2588 0 2587 -632 0 -633 -1 -180 -254 c-99 -141 -205 -291 -235 -334 -95
-135 -151 -215 -295 -418 -77 -108 -162 -229 -190 -269 -249 -356 -307 -433
-321 -427 -8 3 -29 26 -46 52 -18 25 -34 48 -37 51 -3 3 -10 13 -16 22 -10 16
-172 244 -188 263 -15 19 -392 550 -411 580 -11 17 -25 36 -32 42 -7 7 -43 57
-80 110 -37 54 -71 100 -74 103 -4 3 -10 12 -13 20 -4 8 -20 31 -35 51 -138
185 -273 383 -268 395 5 12 -83 14 -644 14 l-650 0 0 -2580z"/>
</g>
</svg>
